<svg xmlns="http://www.w3.org/2000/svg" viewBox="0 0 3840 980" preserveAspectRatio="none"><path d="M3646.4 397.39C3505.21 242.72 3349.64 108.44 3176.06 0H0v980h2869.61c-145-94.91-232.77-130.79-521.55-225.71 31.55-19.7 64.6-27.54 96.23-37.71 247.52-79.58 500.3-127.31 760.95-120.29 233.06 6.27 448.87 58.09 635.75 183.78V635.94c-59.91-83.15-125.12-162.45-194.59-238.55z" fill-rule="evenodd" clip-rule="evenodd" fill="#ec3645"/><path d="M2465.64 0c-61.97 31.73-124.29 68.15-186.67 109.8-779.22 519.09-1245.03 230.86-1512.8 56.02L1230.65 980H3840V0H2465.64z" fill-rule="evenodd" clip-rule="evenodd" fill="#78be20"/><path d="M2087.9 222.51C1987.43 129.91 1884.07 57.04 1780.76 0H476.15L0 587.16v250.89C389.37 780.63 786 779.19 1128.54 980H2977.1l404.25-504.09c-254.03 113.77-693.79 298.03-1293.45-253.4z" fill-rule="evenodd" clip-rule="evenodd" fill="#004696"/><path d="M3465.67 0c-137.31 148.79-355.77 281.15-713.57 351.46-495.04 96.72-794.35 386.22-970.51 628.54H3840V0h-374.33z" fill-rule="evenodd" clip-rule="evenodd" fill="#ffcd00"/></svg>